<svg id="Flat" height="512" viewBox="0 0 512 512" width="512" xmlns="http://www.w3.org/2000/svg"><path d="m128 152v16l13.72 274.4a48 48 0 0 0 47.94 45.6h132.68a48 48 0 0 0 47.94-45.6l13.72-274.4v-16z" fill="#d9dbdd"/><path d="m232 160h48v88h-48z" fill="#fdd14b"/><path d="m232 24h48v128h-48z" fill="#fdd14b"/><path d="m380.8 232-10.52 210.4a48 48 0 0 1 -47.94 45.6h-132.68a48 48 0 0 1 -47.94-45.6l-10.52-210.4z" fill="#fae8d8"/><path d="m120 136h272a16 16 0 0 1 16 16v16a0 0 0 0 1 0 0h-304a0 0 0 0 1 0 0v-16a16 16 0 0 1 16-16z" fill="#93573d"/><g fill="#ab6647"><circle cx="192" cy="440" r="16"/><circle cx="216" cy="384" r="16"/><circle cx="296" cy="384" r="16"/><circle cx="256" cy="440" r="16"/><circle cx="320" cy="440" r="16"/></g></svg>